<svg width="422.9849609375px" height="122.02109374999999px" xmlns="http://www.w3.org/2000/svg" viewBox="38.50751953125001 13.989453125000004 422.9849609375 122.02109374999999" style="background: rgba(0, 0, 0, 0);" preserveAspectRatio="xMidYMid"><defs><linearGradient id="editing-gradow-gradient" x1="0" x2="1" y1="0.5" y2="0.5" gradientUnits="objectBoundingBox"><stop offset="0" stop-color="#b500b5"></stop><stop offset="1" stop-color="#ff8c00"></stop></linearGradient><filter id="editing-gradow-filter" x="-100%" y="-100%" width="300%" height="300%"><feFlood flood-color="#fffcd9" result="flood"></feFlood><feComposite operator="in" in2="SourceAlpha" in="flood" result="shadow"></feComposite><feOffset dx="-4" dy="-4" in="SourceGraphic" result="offset-1"></feOffset><feOffset dx="4" dy="4" in="shadow" result="offset-2"></feOffset><feMerge><feMergeNode in="offset-2"></feMergeNode><feMergeNode in="offset-1"></feMergeNode></feMerge></filter></defs><g filter="url(#editing-gradow-filter)"><g transform="translate(102.25999936461449, 96.75218772888184)"><path d="M14.34 0L0.38 0L8.51-42.24L22.59-42.24L14.34 0ZM51.07 1.28L51.07 1.28L51.07 1.28Q43.33 1.28 43.33-4.74L43.33-4.74L43.33-4.74Q43.39-6.40 43.90-9.22L43.90-9.22L45.06-15.10L45.06-15.10Q46.78-23.42 46.78-25.28L46.78-25.28L46.78-25.28Q46.78-28.99 44.61-28.99L44.61-28.99L44.61-28.99Q40.96-28.99 39.04-19.46L39.04-19.46L35.26 0L22.40 1.28L29.06-32.70L39.55-33.92L38.53-27.65L38.53-27.65Q41.54-33.92 50.75-33.92L50.75-33.92L50.75-33.92Q55.23-33.92 57.12-32.03L57.12-32.03L57.12-32.03Q59.01-30.14 59.01-25.92L59.01-25.92L59.01-25.92Q59.01-21.95 56.96-12.67L56.96-12.67L56.96-12.67Q56-8.51 56-6.94L56-6.94L56-6.94Q56-5.38 56.86-4.48L56.86-4.48L56.86-4.48Q57.73-3.58 59.01-3.46L59.01-3.46L59.01-3.46Q58.37-1.28 56.16 0L56.16 0L56.16 0Q53.95 1.28 51.07 1.28ZM83.26-22.46L83.26-22.46L83.26-22.46Q84.16-24.83 84.16-26.88L84.16-26.88L84.16-26.88Q84.16-30.66 81.09-30.66L81.09-30.66L81.09-30.66Q79.49-30.66 78.18-29.22L78.18-29.22L78.18-29.22Q76.86-27.78 76.86-25.98L76.86-25.98L76.86-25.98Q76.86-24.70 77.89-23.68L77.89-23.68L77.89-23.68Q79.36-22.27 83.14-19.97L83.14-19.97L83.14-19.97Q86.91-17.66 88.35-15.78L88.35-15.78L88.35-15.78Q89.79-13.89 89.79-11.30L89.79-11.30L89.79-11.30Q89.79-8.70 88.54-6.34L88.54-6.34L88.54-6.34Q87.30-3.97 85.06-2.30L85.06-2.30L85.06-2.30Q80.26 1.28 72.58 1.28L72.58 1.28L72.58 1.28Q68.42 1.28 65.22-0.90L65.22-0.90L65.22-0.90Q62.02-3.01 62.02-5.50L62.02-5.50L62.02-5.50Q62.02-8 63.84-9.47L63.84-9.47L63.84-9.47Q65.66-10.94 68.35-10.94L68.35-10.94L68.35-10.94Q71.04-10.94 72.70-9.92L72.70-9.92L72.70-9.92Q71.87-7.81 71.87-6.40L71.87-6.40L71.87-6.40Q71.87-2.18 75.46-2.18L75.46-2.18L75.46-2.18Q76.99-2.18 78.02-3.14L78.02-3.14L78.02-3.14Q79.04-4.10 79.04-5.76L79.04-5.76L79.04-5.76Q79.04-9.02 73.54-12.48L73.54-12.48L73.54-12.48Q69.06-15.42 68.03-16.58L68.03-16.58L68.03-16.58Q66.30-18.62 66.30-21.18L66.30-21.18L66.30-21.18Q66.30-23.74 67.52-26.18L67.52-26.18L67.52-26.18Q68.74-28.61 70.98-30.34L70.98-30.34L70.98-30.34Q75.65-33.92 83.78-33.92L83.78-33.92L83.78-33.92Q87.94-33.92 90.40-32.26L90.40-32.26L90.40-32.26Q92.86-30.59 92.86-27.78L92.86-27.78L92.86-27.78Q92.86-24.96 91.17-23.36L91.17-23.36L91.17-23.36Q89.47-21.76 86.40-21.76L86.40-21.76L86.40-21.76Q84.29-21.76 83.26-22.46ZM96.26-6.40L96.26-6.40L96.26-6.40Q96.26-8.13 97.15-12.48L97.15-12.48L100.54-29.76L96.77-29.76L97.02-31.68L97.02-31.68Q104.70-33.98 112.13-39.62L112.13-39.62L115.20-39.62L113.66-32.64L118.66-32.64L118.08-29.76L113.15-29.76L109.89-12.48L109.89-12.48Q109.06-8.51 109.06-7.17L109.06-7.17L109.06-7.17Q109.06-4.10 111.74-3.46L111.74-3.46L111.74-3.46Q111.10-1.28 108.80 0L108.80 0L108.80 0Q106.50 1.28 103.23 1.28L103.23 1.28L103.23 1.28Q99.97 1.28 98.11-0.77L98.11-0.77L98.11-0.77Q96.26-2.82 96.26-6.40ZM120.86-1.92L120.86-1.92L120.86-1.92Q119.36-3.58 118.69-6.21L118.69-6.21L118.69-6.21Q118.02-8.83 118.02-13.12L118.02-13.12L118.02-13.12Q118.02-17.41 119.49-21.31L119.49-21.31L119.49-21.31Q120.96-25.22 123.65-28.03L123.65-28.03L123.65-28.03Q129.15-33.92 138.24-33.92L138.24-33.92L138.24-33.92Q141.50-33.92 143.87-32.83L143.87-32.83L154.82-33.92L150.08-8.96L150.08-8.96Q149.89-8.19 149.89-6.78L149.89-6.78L149.89-6.78Q149.89-5.38 150.75-4.48L150.75-4.48L150.75-4.48Q151.62-3.58 152.90-3.46L152.90-3.46L152.90-3.46Q152.26-1.28 149.92 0L149.92 0L149.92 0Q147.58 1.28 144.96 1.28L144.96 1.28L144.96 1.28Q142.34 1.28 140.58 0.29L140.58 0.29L140.58 0.29Q138.82-0.70 138.30-2.37L138.30-2.37L138.30-2.37Q137.28-0.77 135.10 0.26L135.10 0.26L135.10 0.26Q132.93 1.28 130.02 1.28L130.02 1.28L130.02 1.28Q127.10 1.28 124.74 0.51L124.74 0.51L124.74 0.51Q122.37-0.26 120.86-1.92ZM134.37-27.90L134.37-27.90L134.37-27.90Q133.63-26.75 132.99-24.80L132.99-24.80L132.99-24.80Q132.35-22.85 131.30-17.63L131.30-17.63L131.30-17.63Q130.24-12.42 130.24-8.70L130.24-8.70L130.24-8.70Q130.24-4.99 130.82-3.90L130.82-3.90L130.82-3.90Q131.39-2.82 132.42-2.82L132.42-2.82L132.42-2.82Q134.46-2.82 135.97-4.77L135.97-4.77L135.97-4.77Q137.47-6.72 138.05-10.18L138.05-10.18L141.44-28.93L141.44-28.93Q140.10-30.08 138.53-30.08L138.53-30.08L138.53-30.08Q136.96-30.08 136.03-29.57L136.03-29.57L136.03-29.57Q135.10-29.06 134.37-27.90ZM189.44-26.62L189.44-26.62L189.44-26.62Q189.44-23.94 187.20-22.27L187.20-22.27L187.20-22.27Q184.96-20.61 181.31-20.61L181.31-20.61L181.31-20.61Q179.78-20.61 178.88-21.06L178.88-21.06L178.88-21.06Q179.58-22.72 179.81-24.80L179.81-24.80L179.81-24.80Q180.03-26.88 180.03-27.46L180.03-27.46L180.03-27.46Q180.03-30.14 178.18-30.14L178.18-30.14L178.18-30.14Q176.90-30.14 175.46-28.54L175.46-28.54L175.46-28.54Q174.02-26.94 172.80-24.45L172.80-24.45L172.80-24.45Q170.11-18.69 170.11-12.86L170.11-12.86L170.11-12.86Q170.11-9.66 171.33-8.22L171.33-8.22L171.33-8.22Q172.54-6.78 175.23-6.78L175.23-6.78L175.23-6.78Q178.94-6.78 181.89-9.86L181.89-9.86L181.89-9.86Q182.72-10.82 183.17-11.90L183.17-11.90L183.17-11.90Q185.60-10.62 185.60-7.10L185.60-7.10L185.60-7.10Q185.60-3.52 181.63-1.15L181.63-1.15L181.63-1.15Q177.54 1.28 171.01 1.28L171.01 1.28L171.01 1.28Q158.02 1.28 158.02-12.48L158.02-12.48L158.02-12.48Q158.02-22.53 163.71-28.29L163.71-28.29L163.71-28.29Q169.22-33.92 179.33-33.92L179.33-33.92L179.33-33.92Q189.44-33.92 189.44-26.62ZM211.20-17.98L211.20-17.98L211.20-17.98Q213.50-22.08 213.50-26.24L213.50-26.24L213.50-26.24Q213.50-28.99 211.52-28.99L211.52-28.99L211.52-28.99Q209.98-28.99 208.38-26.37L208.38-26.37L208.38-26.37Q206.72-23.74 206.21-20.35L206.21-20.35L202.88 0L189.63 1.28L196.16-32.64L206.72-33.92L205.57-27.46L205.57-27.46Q208.70-33.92 215.74-33.92L215.74-33.92L215.74-33.92Q219.46-33.92 221.47-32L221.47-32L221.47-32Q223.49-30.08 223.49-26.14L223.49-26.14L223.49-26.14Q223.49-22.21 220.90-19.71L220.90-19.71L220.90-19.71Q218.30-17.22 213.89-17.22L213.89-17.22L213.89-17.22Q211.97-17.22 211.20-17.98ZM245.06-2.69L245.06-2.69L245.06-2.69Q241.98 1.28 234.37 1.28L234.37 1.28L234.37 1.28Q230.40 1.28 227.52-1.12L227.52-1.12L227.52-1.12Q224.64-3.52 224.64-6.98L224.64-6.98L224.64-6.98Q224.64-8.90 224.83-9.86L224.83-9.86L229.12-32.64L242.11-33.92L237.44-9.22L237.44-9.22Q237.18-7.81 237.18-6.98L237.18-6.98L237.18-6.98Q237.18-3.26 239.42-3.26L239.42-3.26L239.42-3.26Q241.92-3.26 243.71-6.66L243.71-6.66L243.71-6.66Q244.29-7.74 244.54-9.15L244.54-9.15L249.09-32.64L261.70-33.92L256.96-8.96L256.96-8.96Q256.77-8 256.77-6.98L256.77-6.98L256.77-6.98Q256.77-5.95 257.34-4.83L257.34-4.83L257.34-4.83Q257.92-3.71 259.78-3.46L259.78-3.46L259.78-3.46Q259.39-1.92 258.05-0.90L258.05-0.90L258.05-0.90Q255.23 1.28 252.19 1.28L252.19 1.28L252.19 1.28Q249.15 1.28 247.36 0.19L247.36 0.19L247.36 0.19Q245.57-0.90 245.06-2.69ZM277.47 0.64L277.47 0.64L277.47 0.64Q274.43 0 272.86-0.29L272.86-0.29L272.86-0.29Q271.30-0.58 269.47-0.58L269.47-0.58L269.47-0.58Q267.65-0.58 265.86 0.06L265.86 0.06L265.86 0.06Q264.90-0.51 264.29-1.66L264.29-1.66L264.29-1.66Q263.68-2.82 263.68-4.61L263.68-4.61L263.68-4.61Q263.68-8.38 267.52-11.26L267.52-11.26L283.78-22.98L283.78-22.98Q279.23-24.26 275.10-24.26L275.10-24.26L275.10-24.26Q270.98-24.26 269.50-21.44L269.50-21.44L269.50-21.44Q267.33-24 267.33-28.03L267.33-28.03L267.33-28.03Q267.33-30.72 269.28-32.48L269.28-32.48L269.28-32.48Q271.23-34.24 275.33-34.24L275.33-34.24L275.33-34.24Q277.63-34.24 279.71-33.95L279.71-33.95L279.71-33.95Q281.79-33.66 283.65-33.41L283.65-33.41L287.10-32.90L287.10-32.90Q288.77-32.64 290.46-32.64L290.46-32.64L290.46-32.64Q292.16-32.64 293.44-33.34L293.44-33.34L293.44-33.34Q295.10-31.81 295.10-29.70L295.10-29.70L295.10-29.70Q295.10-26.37 291.01-22.91L291.01-22.91L274.82-10.82L274.82-10.82Q279.81-9.34 282.37-9.34L282.37-9.34L282.37-9.34Q287.74-9.34 290.05-11.90L290.05-11.90L290.05-11.90Q291.84-9.86 291.84-6.30L291.84-6.30L291.84-6.30Q291.84-2.75 289.54-0.74L289.54-0.74L289.54-0.74Q287.23 1.28 283.07 1.28L283.07 1.28L283.07 1.28Q280.51 1.28 277.47 0.64Z" fill="url(#editing-gradow-gradient)"></path></g></g><style>text {
  font-size: 64px;
  font-family: Arial Black;
  dominant-baseline: central;
  text-anchor: middle;
}</style></svg>